<svg width="18" height="17" viewBox="0 0 18 17" fill="none" xmlns="http://www.w3.org/2000/svg">
<path d="M7.27839 3.72816C8.00795 1.90939 8.37272 1 9 1C9.62728 1 9.99205 1.90939 10.7216 3.72816L10.7556 3.81286C11.1677 4.84037 11.3738 5.35413 11.7938 5.6664C12.2138 5.97867 12.7652 6.02805 13.8679 6.1268L14.0672 6.14466C15.8719 6.30628 16.7743 6.38709 16.9673 6.96119C17.1604 7.53528 16.4903 8.14494 15.1501 9.36428L14.7027 9.77123C14.0243 10.3885 13.6851 10.6971 13.527 11.1016C13.4975 11.1771 13.4729 11.2544 13.4536 11.333C13.3496 11.7547 13.449 12.2024 13.6476 13.0979L13.7095 13.3766C14.0746 15.0223 14.2572 15.8451 13.9384 16.2C13.8193 16.3326 13.6645 16.4281 13.4925 16.475C13.0323 16.6006 12.3789 16.0682 11.0722 15.0034C10.2141 14.3042 9.78506 13.9546 9.29247 13.8759C9.09872 13.845 8.90128 13.845 8.70753 13.8759C8.21494 13.9546 7.78591 14.3042 6.92783 15.0034C5.62107 16.0682 4.96768 16.6006 4.50747 16.475C4.3355 16.4281 4.1807 16.3326 4.06159 16.2C3.74283 15.8451 3.92539 15.0223 4.29052 13.3766L4.35236 13.0979C4.55103 12.2024 4.65037 11.7547 4.54644 11.333C4.52705 11.2544 4.50253 11.1771 4.47304 11.1016C4.31493 10.6971 3.9757 10.3885 3.29725 9.77123L2.84995 9.36428C1.50971 8.14494 0.839586 7.53528 1.03267 6.96119C1.22575 6.38709 2.12809 6.30628 3.93278 6.14466L4.13213 6.1268C5.23482 6.02805 5.78616 5.97867 6.20617 5.6664C6.62618 5.35413 6.83226 4.84037 7.24442 3.81285L7.27839 3.72816Z" fill="#FFF100" stroke="#FFF100"/>
<path d="M7.27839 3.72816C8.00795 1.90939 8.37272 1 9 1C9.62728 1 9.99205 1.90939 10.7216 3.72816L10.7556 3.81286C11.1677 4.84037 11.3738 5.35413 11.7938 5.6664C12.2138 5.97867 12.7652 6.02805 13.8679 6.1268L14.0672 6.14466C15.8719 6.30628 16.7743 6.38709 16.9673 6.96119C17.1604 7.53528 16.4903 8.14494 15.1501 9.36428L14.7027 9.77123C14.0243 10.3885 13.6851 10.6971 13.527 11.1016C13.4975 11.1771 13.4729 11.2544 13.4536 11.333C13.3496 11.7547 13.449 12.2024 13.6476 13.0979L13.7095 13.3766C14.0746 15.0223 14.2572 15.8451 13.9384 16.2C13.8193 16.3326 13.6645 16.4281 13.4925 16.475C13.0323 16.6006 12.3789 16.0682 11.0722 15.0034C10.2141 14.3042 9.78506 13.9546 9.29247 13.8759C9.09872 13.845 8.90128 13.845 8.70753 13.8759C8.21494 13.9546 7.78591 14.3042 6.92783 15.0034C5.62107 16.0682 4.96768 16.6006 4.50747 16.475C4.3355 16.4281 4.1807 16.3326 4.06159 16.2C3.74283 15.8451 3.92539 15.0223 4.29052 13.3766L4.35236 13.0979C4.55103 12.2024 4.65037 11.7547 4.54644 11.333C4.52705 11.2544 4.50253 11.1771 4.47304 11.1016C4.31493 10.6971 3.9757 10.3885 3.29725 9.77123L2.84995 9.36428C1.50971 8.14494 0.839586 7.53528 1.03267 6.96119C1.22575 6.38709 2.12809 6.30628 3.93278 6.14466L4.13213 6.1268C5.23482 6.02805 5.78616 5.97867 6.20617 5.6664C6.62618 5.35413 6.83226 4.84037 7.24442 3.81285L7.27839 3.72816Z" stroke="#808386"/>
</svg>
