<svg width="16" height="16" viewBox="0 0 16 16" fill="none" xmlns="http://www.w3.org/2000/svg">
<path d="M6 8C6 8.53043 6.21071 9.03914 6.58579 9.41421C6.96086 9.78929 7.46957 10 8 10C8.53043 10 9.03914 9.78929 9.41421 9.41421C9.78929 9.03914 10 8.53043 10 8" stroke="#717171" stroke-linecap="round"/>
<path d="M3 5.86852C3 5.60798 3 5.4777 3.01628 5.3509C3.04458 5.13042 3.10944 4.91621 3.20819 4.71706C3.26498 4.60253 3.33724 4.49413 3.48177 4.27735V4.27735C3.73287 3.9007 3.85842 3.71237 4.01229 3.56334C4.28028 3.30379 4.61553 3.12437 4.98015 3.04536C5.18949 3 5.41584 3 5.86852 3H10.1315C10.5842 3 10.8105 3 11.0199 3.04536C11.3845 3.12437 11.7197 3.30379 11.9877 3.56334C12.1416 3.71237 12.2671 3.9007 12.5182 4.27735V4.27735C12.6628 4.49413 12.735 4.60253 12.7918 4.71706C12.8906 4.91621 12.9554 5.13042 12.9837 5.3509C13 5.4777 13 5.60798 13 5.86852V9C13 10.8856 13 11.8284 12.4142 12.4142C11.8284 13 10.8856 13 9 13H7C5.11438 13 4.17157 13 3.58579 12.4142C3 11.8284 3 10.8856 3 9V5.86852Z" stroke="#717171"/>
<path d="M3 6.33325H13" stroke="#717171" stroke-linecap="round"/>
</svg>
