<svg width="14" height="16" viewBox="0 0 14 16" fill="none" xmlns="http://www.w3.org/2000/svg">
<path d="M7 9.33333C6.77963 9.33333 6.59504 9.25867 6.44622 9.10933C6.29689 8.96052 6.22222 8.77593 6.22222 8.55556C6.22222 8.33519 6.29689 8.15033 6.44622 8.001C6.59504 7.85219 6.77963 7.77778 7 7.77778C7.22037 7.77778 7.40522 7.85219 7.55456 8.001C7.70337 8.15033 7.77778 8.33519 7.77778 8.55556C7.77778 8.77593 7.70337 8.96052 7.55456 9.10933C7.40522 9.25867 7.22037 9.33333 7 9.33333ZM3.88889 9.33333C3.66852 9.33333 3.48367 9.25867 3.33433 9.10933C3.18552 8.96052 3.11111 8.77593 3.11111 8.55556C3.11111 8.33519 3.18552 8.15033 3.33433 8.001C3.48367 7.85219 3.66852 7.77778 3.88889 7.77778C4.10926 7.77778 4.29411 7.85219 4.44344 8.001C4.59226 8.15033 4.66667 8.33519 4.66667 8.55556C4.66667 8.77593 4.59226 8.96052 4.44344 9.10933C4.29411 9.25867 4.10926 9.33333 3.88889 9.33333ZM10.1111 9.33333C9.89074 9.33333 9.70615 9.25867 9.55733 9.10933C9.408 8.96052 9.33333 8.77593 9.33333 8.55556C9.33333 8.33519 9.408 8.15033 9.55733 8.001C9.70615 7.85219 9.89074 7.77778 10.1111 7.77778C10.3315 7.77778 10.5161 7.85219 10.6649 8.001C10.8142 8.15033 10.8889 8.33519 10.8889 8.55556C10.8889 8.77593 10.8142 8.96052 10.6649 9.10933C10.5161 9.25867 10.3315 9.33333 10.1111 9.33333ZM7 12.4444C6.77963 12.4444 6.59504 12.3698 6.44622 12.2204C6.29689 12.0716 6.22222 11.887 6.22222 11.6667C6.22222 11.4463 6.29689 11.2617 6.44622 11.1129C6.59504 10.9636 6.77963 10.8889 7 10.8889C7.22037 10.8889 7.40522 10.9636 7.55456 11.1129C7.70337 11.2617 7.77778 11.4463 7.77778 11.6667C7.77778 11.887 7.70337 12.0716 7.55456 12.2204C7.40522 12.3698 7.22037 12.4444 7 12.4444ZM3.88889 12.4444C3.66852 12.4444 3.48367 12.3698 3.33433 12.2204C3.18552 12.0716 3.11111 11.887 3.11111 11.6667C3.11111 11.4463 3.18552 11.2617 3.33433 11.1129C3.48367 10.9636 3.66852 10.8889 3.88889 10.8889C4.10926 10.8889 4.29411 10.9636 4.44344 11.1129C4.59226 11.2617 4.66667 11.4463 4.66667 11.6667C4.66667 11.887 4.59226 12.0716 4.44344 12.2204C4.29411 12.3698 4.10926 12.4444 3.88889 12.4444ZM10.1111 12.4444C9.89074 12.4444 9.70615 12.3698 9.55733 12.2204C9.408 12.0716 9.33333 11.887 9.33333 11.6667C9.33333 11.4463 9.408 11.2617 9.55733 11.1129C9.70615 10.9636 9.89074 10.8889 10.1111 10.8889C10.3315 10.8889 10.5161 10.9636 10.6649 11.1129C10.8142 11.2617 10.8889 11.4463 10.8889 11.6667C10.8889 11.887 10.8142 12.0716 10.6649 12.2204C10.5161 12.3698 10.3315 12.4444 10.1111 12.4444ZM1.55556 15.5556C1.12778 15.5556 0.761444 15.4034 0.456555 15.099C0.152185 14.7941 0 14.4278 0 14V3.11111C0 2.68333 0.152185 2.31726 0.456555 2.01289C0.761444 1.708 1.12778 1.55556 1.55556 1.55556H2.33333V0H3.88889V1.55556H10.1111V0H11.6667V1.55556H12.4444C12.8722 1.55556 13.2386 1.708 13.5434 2.01289C13.8478 2.31726 14 2.68333 14 3.11111V14C14 14.4278 13.8478 14.7941 13.5434 15.099C13.2386 15.4034 12.8722 15.5556 12.4444 15.5556H1.55556ZM1.55556 14H12.4444V6.22222H1.55556V14Z" fill="#666666"/>
</svg>
