<svg width="16" height="15" viewBox="0 0 16 15" fill="none" xmlns="http://www.w3.org/2000/svg">
<path d="M1 4.83325C1 3.89044 1 3.41904 1.29289 3.12615C1.58579 2.83325 2.05719 2.83325 3 2.83325H13C13.9428 2.83325 14.4142 2.83325 14.7071 3.12615C15 3.41904 15 3.89044 15 4.83325V12.4999C15 13.4427 15 13.9141 14.7071 14.207C14.4142 14.4999 13.9428 14.4999 13 14.4999H3C2.05719 14.4999 1.58579 14.4999 1.29289 14.207C1 13.9141 1 13.4427 1 12.4999V4.83325Z" stroke="#808386"/>
<path d="M1 5.94436C1 4.90803 1 4.38986 1.18738 3.98801C1.3861 3.56186 1.72861 3.21935 2.15476 3.02064C2.55661 2.83325 3.07478 2.83325 4.11111 2.83325H11.8889C12.9252 2.83325 13.4434 2.83325 13.8452 3.02064C14.2714 3.21935 14.6139 3.56186 14.8126 3.98801C15 4.38986 15 4.90803 15 5.94436H1Z" fill="#808386"/>
<path d="M4.11084 0.5L4.11084 2.83333" stroke="#808386" stroke-linecap="round"/>
<path d="M11.8892 0.5L11.8892 2.83333" stroke="#808386" stroke-linecap="round"/>
<rect x="4.11084" y="7.5" width="3.11111" height="1.55556" rx="0.5" fill="#808386"/>
<rect x="4.11084" y="10.6111" width="3.11111" height="1.55556" rx="0.5" fill="#808386"/>
<rect x="8.77783" y="7.5" width="3.11111" height="1.55556" rx="0.5" fill="#808386"/>
<rect x="8.77783" y="10.6111" width="3.11111" height="1.55556" rx="0.5" fill="#808386"/>
</svg>
