<svg width="24" height="24" viewBox="0 0 24 24" fill="none" xmlns="http://www.w3.org/2000/svg">
<path d="M5 5V4.5H4.5V5H5ZM12.8817 13.5888C13.077 13.7841 13.3936 13.7841 13.5888 13.5888C13.7841 13.3936 13.7841 13.077 13.5888 12.8817L12.8817 13.5888ZM5.5 11.5882V5H4.5V11.5882H5.5ZM5 5.5H11.5882V4.5H5V5.5ZM4.64645 5.35355L12.8817 13.5888L13.5888 12.8817L5.35355 4.64645L4.64645 5.35355Z" fill="#808386"/>
<path d="M5.82349 14.8823V14.8823C5.82349 15.9221 5.82349 16.442 5.95099 16.8653C6.24118 17.8286 6.99488 18.5823 7.95816 18.8724C8.38143 19 8.90133 19 9.94113 19H13C15.8284 19 17.2426 19 18.1213 18.1213C19 17.2426 19 15.8284 19 13V9.94113C19 8.90133 19 8.38143 18.8724 7.95816C18.5823 6.99488 17.8286 6.24118 16.8653 5.95099C16.442 5.82349 15.9221 5.82349 14.8823 5.82349V5.82349" stroke="#808386" stroke-linecap="round"/>
</svg>
