<svg width="13" height="14" viewBox="0 0 13 14" fill="none" xmlns="http://www.w3.org/2000/svg">
<path d="M11.0176 10.1579C11.4888 10.4459 11.7368 10.7727 11.7368 11.1053C11.7368 11.4379 11.4888 11.7646 11.0176 12.0526C10.5464 12.3407 9.86874 12.5799 9.05263 12.7462C8.23653 12.9125 7.31078 13 6.36842 13C5.42607 13 4.50031 12.9125 3.68421 12.7462C2.86811 12.5799 2.19041 12.3407 1.71923 12.0526C1.24805 11.7646 1 11.4379 1 11.1053C1 10.7727 1.24805 10.4459 1.71923 10.1579" stroke="#333333" stroke-linecap="round"/>
<path d="M11.1055 5.73684C11.1055 8.75693 7.95785 10.8403 6.7943 11.5072C6.52882 11.6594 6.20854 11.6594 5.94305 11.5072C4.77951 10.8403 1.63184 8.75693 1.63184 5.73684C1.63184 2.89474 3.927 1 6.36868 1C8.89499 1 11.1055 2.89474 11.1055 5.73684Z" stroke="#333333"/>
<circle cx="6.36811" cy="5.73686" r="2.02632" stroke="#333333"/>
</svg>
