<svg width="24" height="24" viewBox="0 0 24 24" fill="none" xmlns="http://www.w3.org/2000/svg">
<path d="M4 12L3.60957 11.6877L3.35969 12L3.60957 12.3123L4 12ZM11.2 12.5C11.4761 12.5 11.7 12.2761 11.7 12C11.7 11.7239 11.4761 11.5 11.2 11.5V12.5ZM6.80957 7.68765L3.60957 11.6877L4.39043 12.3123L7.59043 8.31235L6.80957 7.68765ZM3.60957 12.3123L6.80957 16.3123L7.59043 15.6877L4.39043 11.6877L3.60957 12.3123ZM4 12.5H11.2V11.5H4V12.5Z" fill="#808386"/>
<path d="M10.4004 8.90555V8.74942C10.4004 7.3642 10.4004 6.67159 10.7538 6.15897C10.829 6.05 10.9147 5.94877 11.0099 5.85675C11.4574 5.42383 12.1406 5.30997 13.507 5.08224V5.08224C16.2785 4.62031 17.6643 4.38935 18.6453 5.03255C18.8504 5.16704 19.0383 5.32617 19.2047 5.5064C20.0004 6.36832 20.0004 7.77321 20.0004 10.583V13.417C20.0004 16.2268 20.0004 17.6317 19.2047 18.4936C19.0383 18.6738 18.8504 18.833 18.6453 18.9675C17.6643 19.6107 16.278 19.3796 13.5055 18.9175V18.9175C12.1408 18.6901 11.4584 18.5763 11.0112 18.1445C10.9151 18.0517 10.8285 17.9496 10.7528 17.8395C10.4004 17.3274 10.4004 16.6359 10.4004 15.2528V15.2528" stroke="#808386"/>
</svg>
