<svg width="12" height="13" viewBox="0 0 12 13" fill="none" xmlns="http://www.w3.org/2000/svg">
<path d="M5.4 9.7709H6.6V8.5709H5.4V9.7709ZM6 0.170898C5.21207 0.170898 4.43185 0.326093 3.7039 0.627621C2.97595 0.92915 2.31451 1.37111 1.75736 1.92826C0.632141 3.05348 0 4.5796 0 6.1709C0 7.7622 0.632141 9.28832 1.75736 10.4135C2.31451 10.9707 2.97595 11.4126 3.7039 11.7142C4.43185 12.0157 5.21207 12.1709 6 12.1709C7.5913 12.1709 9.11742 11.5388 10.2426 10.4135C11.3679 9.28832 12 7.7622 12 6.1709C12 5.38297 11.8448 4.60275 11.5433 3.8748C11.2417 3.14684 10.7998 2.48541 10.2426 1.92826C9.68549 1.37111 9.02405 0.92915 8.2961 0.627621C7.56815 0.326093 6.78793 0.170898 6 0.170898ZM6 10.9709C3.354 10.9709 1.2 8.8169 1.2 6.1709C1.2 3.5249 3.354 1.3709 6 1.3709C8.646 1.3709 10.8 3.5249 10.8 6.1709C10.8 8.8169 8.646 10.9709 6 10.9709ZM6 2.5709C5.36348 2.5709 4.75303 2.82375 4.30294 3.27384C3.85286 3.72393 3.6 4.33438 3.6 4.9709H4.8C4.8 4.65264 4.92643 4.34741 5.15147 4.12237C5.37652 3.89733 5.68174 3.7709 6 3.7709C6.31826 3.7709 6.62348 3.89733 6.84853 4.12237C7.07357 4.34741 7.2 4.65264 7.2 4.9709C7.2 6.1709 5.4 6.0209 5.4 7.9709H6.6C6.6 6.6209 8.4 6.4709 8.4 4.9709C8.4 4.33438 8.14714 3.72393 7.69706 3.27384C7.24697 2.82375 6.63652 2.5709 6 2.5709Z" fill="#717171"/>
</svg>
