<svg width="20" height="20" viewBox="0 0 20 20" fill="none" xmlns="http://www.w3.org/2000/svg">
<path d="M16 15.3724L12.648 12.0204C13.4535 11.0534 13.8552 9.81301 13.7695 8.55737C13.6838 7.30173 13.1173 6.12747 12.1878 5.27887C11.2584 4.43028 10.0376 3.97267 8.77932 4.00126C7.52108 4.02985 6.32231 4.54243 5.43237 5.43237C4.54243 6.32231 4.02985 7.52108 4.00126 8.77932C3.97267 10.0376 4.43028 11.2584 5.27887 12.1878C6.12747 13.1173 7.30173 13.6838 8.55737 13.7695C9.81301 13.8552 11.0534 13.4535 12.0204 12.648L15.3724 16L16 15.3724ZM4.90359 8.89829C4.90359 8.10822 5.13787 7.33588 5.57682 6.67895C6.01576 6.02203 6.63965 5.51001 7.36959 5.20766C8.09952 4.90531 8.90273 4.82621 9.67762 4.98034C10.4525 5.13448 11.1643 5.51494 11.723 6.07361C12.2817 6.63228 12.6621 7.34407 12.8162 8.11897C12.9704 8.89386 12.8913 9.69707 12.5889 10.427C12.2866 11.1569 11.7746 11.7808 11.1176 12.2198C10.4607 12.6587 9.68837 12.893 8.89829 12.893C7.83919 12.8918 6.82381 12.4706 6.07491 11.7217C5.32601 10.9728 4.90476 9.9574 4.90359 8.89829Z" fill="#A8ABAE"/>
</svg>
