<svg width="16" height="15" viewBox="0 0 16 15" fill="none" xmlns="http://www.w3.org/2000/svg">
<path d="M1.21799 12.6303L1.66349 12.4033L1.21799 12.6303ZM13.908 13.5043L13.681 13.0588L13.908 13.5043ZM14.782 12.6303L15.2275 12.8573L14.782 12.6303ZM13.908 1.49582L14.135 1.05032L13.908 1.49582ZM14.782 2.36985L14.3365 2.59685L14.782 2.36985ZM2.09202 1.49582L1.86502 1.05032L2.09202 1.49582ZM1.21799 2.36985L0.772484 2.14286L1.21799 2.36985ZM4.2 1.77783H11.8V0.777832H4.2V1.77783ZM11.8 13.2223H4.2V14.2223H11.8V13.2223ZM14.5 4.47783V5.76501H15.5V4.47783H14.5ZM14.8205 5.4445H14.2222V6.4445H14.8205V5.4445ZM14.5 9.2351V10.5223H15.5V9.2351H14.5ZM14.2222 9.55561H14.8205V8.55561H14.2222V9.55561ZM1.77778 5.4445H1.17949V6.4445H1.77778V5.4445ZM1.5 5.76501V4.47783H0.5V5.76501H1.5ZM1.5 10.5223V9.2351H0.5V10.5223H1.5ZM1.17949 9.55561H1.77778V8.55561H1.17949V9.55561ZM1.77778 9.55561C2.91303 9.55561 3.83333 8.63531 3.83333 7.50005H2.83333C2.83333 8.08302 2.36074 8.55561 1.77778 8.55561V9.55561ZM1.5 9.2351C1.5 9.41211 1.3565 9.55561 1.17949 9.55561V8.55561C0.804217 8.55561 0.5 8.85983 0.5 9.2351H1.5ZM1.17949 5.4445C1.3565 5.4445 1.5 5.588 1.5 5.76501H0.5C0.5 6.14028 0.804216 6.4445 1.17949 6.4445V5.4445ZM1.77778 6.4445C2.36074 6.4445 2.83333 6.91709 2.83333 7.50005H3.83333C3.83333 6.3648 2.91303 5.4445 1.77778 5.4445V6.4445ZM12.1667 7.50005C12.1667 8.63531 13.087 9.55561 14.2222 9.55561V8.55561C13.6393 8.55561 13.1667 8.08302 13.1667 7.50005H12.1667ZM15.5 9.2351C15.5 8.85983 15.1958 8.55561 14.8205 8.55561V9.55561C14.6435 9.55561 14.5 9.41211 14.5 9.2351H15.5ZM14.5 5.76501C14.5 5.588 14.6435 5.4445 14.8205 5.4445V6.4445C15.1958 6.4445 15.5 6.14028 15.5 5.76501H14.5ZM14.2222 5.4445C13.087 5.4445 12.1667 6.3648 12.1667 7.50005H13.1667C13.1667 6.91709 13.6393 6.4445 14.2222 6.4445V5.4445ZM4.2 13.2223C3.6317 13.2223 3.23554 13.2219 2.92712 13.1967C2.62454 13.172 2.45069 13.1259 2.31901 13.0588L1.86502 13.9498C2.16117 14.1007 2.48126 14.1636 2.84569 14.1934C3.20428 14.2227 3.6482 14.2223 4.2 14.2223V13.2223ZM0.5 10.5223C0.5 11.0741 0.499611 11.518 0.528909 11.8766C0.558684 12.241 0.62159 12.5611 0.772484 12.8573L1.66349 12.4033C1.5964 12.2716 1.55031 12.0977 1.52559 11.7952C1.50039 11.4867 1.5 11.0906 1.5 10.5223H0.5ZM2.31901 13.0588C2.03677 12.915 1.8073 12.6855 1.66349 12.4033L0.772484 12.8573C1.01217 13.3277 1.39462 13.7101 1.86502 13.9498L2.31901 13.0588ZM11.8 14.2223C12.3518 14.2223 12.7957 14.2227 13.1543 14.1934C13.5187 14.1636 13.8388 14.1007 14.135 13.9498L13.681 13.0588C13.5493 13.1259 13.3755 13.172 13.0729 13.1967C12.7645 13.2219 12.3683 13.2223 11.8 13.2223V14.2223ZM14.5 10.5223C14.5 11.0906 14.4996 11.4867 14.4744 11.7952C14.4497 12.0977 14.4036 12.2716 14.3365 12.4033L15.2275 12.8573C15.3784 12.5611 15.4413 12.241 15.4711 11.8766C15.5004 11.518 15.5 11.0741 15.5 10.5223H14.5ZM14.135 13.9498C14.6054 13.7101 14.9878 13.3277 15.2275 12.8573L14.3365 12.4033C14.1927 12.6855 13.9632 12.915 13.681 13.0588L14.135 13.9498ZM11.8 1.77783C12.3683 1.77783 12.7645 1.77822 13.0729 1.80342C13.3755 1.82814 13.5493 1.87423 13.681 1.94132L14.135 1.05032C13.8388 0.899422 13.5187 0.836516 13.1543 0.806741C12.7957 0.777443 12.3518 0.777832 11.8 0.777832V1.77783ZM15.5 4.47783C15.5 3.92603 15.5004 3.48211 15.4711 3.12352C15.4413 2.7591 15.3784 2.439 15.2275 2.14286L14.3365 2.59685C14.4036 2.72852 14.4497 2.90237 14.4744 3.20495C14.4996 3.51337 14.5 3.90953 14.5 4.47783H15.5ZM13.681 1.94132C13.9632 2.08513 14.1927 2.3146 14.3365 2.59685L15.2275 2.14286C14.9878 1.67245 14.6054 1.29 14.135 1.05032L13.681 1.94132ZM4.2 0.777832C3.6482 0.777832 3.20428 0.777443 2.84569 0.806741C2.48126 0.836516 2.16117 0.899422 1.86502 1.05032L2.31901 1.94132C2.45069 1.87423 2.62454 1.82814 2.92712 1.80342C3.23554 1.77822 3.6317 1.77783 4.2 1.77783V0.777832ZM1.5 4.47783C1.5 3.90953 1.50039 3.51337 1.52559 3.20495C1.55031 2.90237 1.5964 2.72852 1.66349 2.59685L0.772484 2.14286C0.62159 2.439 0.558684 2.7591 0.528909 3.12352C0.499611 3.48211 0.5 3.92603 0.5 4.47783H1.5ZM1.86502 1.05032C1.39462 1.29 1.01217 1.67245 0.772484 2.14286L1.66349 2.59685C1.8073 2.3146 2.03677 2.08513 2.31901 1.94132L1.86502 1.05032Z" fill="#808386"/>
<path d="M8 5.16675V6.33341" stroke="#808386" stroke-linecap="round"/>
<path d="M8 1.66675V2.83341" stroke="#808386" stroke-linecap="round"/>
<path d="M8 8.66675V9.83342" stroke="#808386" stroke-linecap="round"/>
<path d="M8 12.1667V13.3334" stroke="#808386" stroke-linecap="round"/>
</svg>
