<svg width="16" height="15" viewBox="0 0 16 15" fill="none" xmlns="http://www.w3.org/2000/svg">
<path d="M11.2333 4.1129C11.2333 5.81679 9.80124 7.22581 7.99994 7.22581C6.19863 7.22581 4.7666 5.81679 4.7666 4.1129C4.7666 2.40902 6.19863 1 7.99994 1C9.80124 1 11.2333 2.40902 11.2333 4.1129Z" stroke="#808386" stroke-linecap="round"/>
<path d="M1.25628 12.4566C1.83464 10.1425 4.24765 9.08069 6.63294 9.08069H9.36706C11.7524 9.08069 14.1654 10.1425 14.7437 12.4566C14.8263 12.7872 14.8936 13.1365 14.9385 13.5019C15.0058 14.05 14.5523 14.5 14 14.5H2C1.44772 14.5 0.994195 14.05 1.0615 13.5019C1.10637 13.1365 1.17366 12.7872 1.25628 12.4566Z" stroke="#808386" stroke-linecap="round"/>
</svg>
