<svg width="120" height="57" viewBox="0 0 120 57" fill="none" xmlns="http://www.w3.org/2000/svg">
<g filter="url(#filter0_d_161_8602)">
<path fill-rule="evenodd" clip-rule="evenodd" d="M108.761 49C112.758 49.0003 115.997 45.9162 115.997 42.1131L116 6.89332C116 3.09019 112.761 0.00681326 108.764 0.00654037L11.2395 1.58212e-08C7.24239 -0.000255012 4.0029 3.08267 4.00262 6.8858L4 42.1056C3.99972 45.9087 7.23877 48.9932 11.2358 48.9935L108.761 49Z" fill="#295EAC"/>
<path fill-rule="evenodd" clip-rule="evenodd" d="M12.2629 47.5203C8.35301 47.52 5.5865 44.9591 5.58678 41.3285L5.58926 7.66202C5.58953 4.03283 8.3564 1.4719 12.2663 1.47216L107.738 1.47857C111.647 1.47883 114.414 4.04012 114.413 7.66931L114.411 41.3358C114.41 44.9664 111.644 47.527 107.734 47.5267L12.2629 47.5203ZM106.677 46.1309C110.498 46.1312 112.799 44.0697 112.799 40.6035L112.802 8.40277C112.802 4.93659 110.501 2.87525 106.68 2.87499L13.3229 2.86873C9.50295 2.86849 7.20096 4.92952 7.20071 8.3957L7.19831 40.5965C7.19807 44.0626 9.49974 46.1244 13.3197 46.1246L106.677 46.1309Z" fill="#FFF100"/>
<path fill-rule="evenodd" clip-rule="evenodd" d="M99.112 34.287C94.4215 34.2867 89.9884 31.9966 89.9888 27.0012C89.9892 22.0065 94.4226 19.717 99.1131 19.7173C103.804 19.7177 108.237 22.0078 108.236 27.0024C108.236 31.9978 103.803 34.2873 99.112 34.287ZM19.9289 30.0663L30.8288 30.0671L32.8131 33.9183L39.2301 33.9187L29.0913 15.0464L22.1037 15.046L12.4537 33.9169L18.0832 33.9173L19.9289 30.0663ZM45.0073 15.2392L40.0702 15.2389L40.0688 33.9188L45.006 33.9191L45.0073 15.2392ZM62.7437 31.2143L62.7443 23.7216C61.7869 20.1465 57.26 19.9063 54.697 19.9061C50.9724 19.9059 47.1113 20.5039 46.5639 24.7443L51.378 24.7446C51.5147 23.9383 51.7237 22.6281 54.1162 22.6282C55.3462 22.6283 57.4604 22.7063 57.4603 24.2414C57.4603 25.0219 56.5383 25.2563 55.786 25.334L51.2795 25.8285C48.2382 26.1663 45.9826 27.5449 45.9825 30.251C45.9822 33.1129 48.7841 34.2836 51.5179 34.2838C54.7642 34.284 56.5028 33.1387 57.5965 32.2805C57.699 33.061 57.7677 33.2693 58.0407 33.92L62.7985 33.9203L62.7437 31.2143ZM89.2801 24.6346C89.2803 21.5906 85.9536 20.3867 82.4578 20.3865C79.5989 20.3863 78.2878 21.9206 77.6819 22.597C76.4719 21.1142 75.295 20.386 72.7057 20.3858C69.5455 20.3856 69.44 21.677 68.8341 22.5865L68.7667 22.5865L68.7668 20.5577L63.8594 20.5574L63.8584 33.9204L68.968 33.9207L68.9686 25.969C68.9687 24.4596 69.6754 23.6047 71.8943 23.647C74.049 23.6866 74.1156 24.9032 74.1155 26.074L74.1149 33.9211L79.4259 33.9214L79.4265 26.1002C79.4266 24.4603 79.8651 23.5944 82.2181 23.6477C83.9986 23.6872 84.702 24.3568 84.5725 25.9966L84.5719 33.9217L89.2794 33.9221L89.2801 24.6346ZM99.1128 22.7865C95.5705 22.7862 94.9134 25.233 94.9132 27.0015C94.9131 28.7707 95.5699 31.2165 99.1122 31.2167C102.654 31.217 103.312 28.7713 103.312 27.0021C103.312 25.2336 102.655 22.7867 99.1128 22.7865ZM25.2769 19.0702L28.963 26.4588L21.8076 26.4583L25.2769 19.0702ZM57.2594 28.9504C57.2592 30.6414 55.1056 31.682 52.987 31.6818C52.0651 31.6818 50.7666 31.2916 50.7667 30.0169C50.7668 28.5078 52.2358 28.1695 54.0131 27.9359C55.995 27.702 56.781 27.4675 57.2595 27.1811L57.2594 28.9504ZM110.043 19.1761C110.043 20.4119 109.072 21.1304 107.986 21.1303C106.895 21.1302 105.922 20.4116 105.923 19.1758C105.923 17.9415 106.895 17.2231 107.986 17.2232C109.072 17.2233 110.044 17.9418 110.043 19.1761ZM109.452 19.1761C109.452 18.278 108.779 17.6782 107.986 17.6781C107.172 17.6781 106.515 18.2778 106.514 19.1759C106.514 20.0758 107.171 20.6805 107.986 20.6753L107.986 20.6805C108.779 20.6806 109.451 20.076 109.452 19.1761ZM108.936 20.2256L108.377 20.2256L107.866 19.3419L107.644 19.3418L107.644 20.2255L107.171 20.2255L107.172 18.1223L107.997 18.1224C108.567 18.1224 108.903 18.278 108.903 18.7576C108.903 19.1455 108.664 19.2848 108.372 19.3058L108.936 20.2256ZM108.399 18.7115C108.399 18.4947 108.155 18.4788 107.975 18.4788L107.644 18.4788L107.644 18.985L108.062 18.9851C108.273 18.9851 108.399 18.9445 108.399 18.7115Z" fill="#FFF100"/>
</g>
<defs>
<filter id="filter0_d_161_8602" x="0" y="0" width="120" height="57" filterUnits="userSpaceOnUse" color-interpolation-filters="sRGB">
<feFlood flood-opacity="0" result="BackgroundImageFix"/>
<feColorMatrix in="SourceAlpha" type="matrix" values="0 0 0 0 0 0 0 0 0 0 0 0 0 0 0 0 0 0 127 0" result="hardAlpha"/>
<feOffset dy="4"/>
<feGaussianBlur stdDeviation="2"/>
<feComposite in2="hardAlpha" operator="out"/>
<feColorMatrix type="matrix" values="0 0 0 0 0 0 0 0 0 0 0 0 0 0 0 0 0 0 0.25 0"/>
<feBlend mode="normal" in2="BackgroundImageFix" result="effect1_dropShadow_161_8602"/>
<feBlend mode="normal" in="SourceGraphic" in2="effect1_dropShadow_161_8602" result="shape"/>
</filter>
</defs>
</svg>
