<svg width="100" height="100" viewBox="0 0 100 100" fill="none" xmlns="http://www.w3.org/2000/svg">
<path fill-rule="evenodd" clip-rule="evenodd" d="M87.5 50C87.5 70.7107 70.7107 87.5 50 87.5C29.2893 87.5 12.5 70.7107 12.5 50C12.5 29.2893 29.2893 12.5 50 12.5C70.7107 12.5 87.5 29.2893 87.5 50ZM32.2727 67.7273C31.6869 67.1415 31.6869 66.1918 32.2727 65.606L47.8787 50L32.2727 34.394C31.6869 33.8082 31.6869 32.8585 32.2727 32.2727C32.8585 31.6869 33.8082 31.6869 34.394 32.2727L50 47.8787L65.606 32.2727C66.1918 31.6869 67.1415 31.6869 67.7273 32.2727C68.3131 32.8585 68.3131 33.8082 67.7273 34.394L52.1213 50L67.7273 65.606C68.3131 66.1918 68.3131 67.1415 67.7273 67.7273C67.1415 68.3131 66.1918 68.3131 65.606 67.7273L50 52.1213L34.394 67.7273C33.8082 68.3131 32.8585 68.3131 32.2727 67.7273Z" fill="#A8ABAE"/>
</svg>
